Coordinates
version=1
nRows=16
nColumns=36
inDegrees=yes

Units are S.I. units (second, meters, Newtons, ...)
If the header above contains a line with 'inDegrees', this indicates whether rotational values are in degrees (yes) or radians (no).

endheader
time	pelvis_tilt	pelvis_list	pelvis_rotation	pelvis_tx	pelvis_ty	pelvis_tz	hip_flexion_r	hip_adduction_r	hip_rotation_r	knee_angle_r	knee_angle_r_beta	ankle_angle_r	subtalar_angle_r	mtp_angle_r	hip_flexion_l	hip_adduction_l	hip_rotation_l	knee_angle_l	knee_angle_l_beta	ankle_angle_l	subtalar_angle_l	mtp_angle_l	lumbar_extension	lumbar_bending	lumbar_rotation	arm_flex_r	arm_add_r	arm_rot_r	elbow_flex_r	pro_sup_r	arm_flex_l	arm_add_l	arm_rot_l	elbow_flex_l	pro_sup_l
     14.86666670	      4.68575078	     -7.84442085	     -2.03151980	      0.59569762	      1.04617886	      0.74039619	     15.18703416	      9.15698131	      0.30616229	     22.74961086	      0.39705561	      6.90526385	     -8.03819514	     -7.49999987	     -7.61163667	    -12.19691572	     -4.35279078	     45.68214210	      0.79730379	      7.37645489	     -6.10707605	     -7.49999987	    -17.84313181	     10.09313412	      4.46369004	      4.57305128	    -17.76070808	      4.51586189	     22.17934461	     90.60664887	     12.63430594	     -9.49248121	     15.70013088	     22.80671181	     89.83589457
     14.88333330	      5.16433034	     -8.29179783	     -1.83551886	      0.59258651	      1.04343830	      0.74280058	     12.95284645	      9.93616490	      0.70384338	     21.80808384	      0.38062287	      8.12560186	     -8.66952555	     -7.49999987	     -5.93143282	    -12.93385644	     -3.72689025	     50.12907887	      0.87491748	      4.90729986	     -7.46793938	     -7.49999987	    -18.22940594	     10.71349577	      5.31935844	      4.47211532	    -18.32052184	      5.51687494	     22.90585083	     90.04095600	     12.28676423	     -8.96776174	     16.48405132	     21.54107819	     89.97358725
     14.90000000	      5.54969593	     -8.47308971	     -1.65569248	      0.58807295	      1.04027085	      0.74481811	     10.76485599	     10.36158685	      0.98273062	     20.60744155	      0.35966771	      9.21421984	     -8.84276112	     -7.49999987	     -3.73583791	    -13.32320590	     -2.94084043	     54.41701643	      0.94975611	      3.05214632	     -8.71199148	     -7.49999987	    -18.76868032	     11.00815448	      5.93109076	      4.77970162	    -18.57813305	      5.58328163	     23.52463685	     89.90220017	     11.69749739	     -8.80083869	     16.63666435	     21.25143260	     89.96741278
     14.91666670	      5.83488292	     -8.31609263	     -1.66256828	      0.58416837	      1.03956027	      0.74608449	      8.70777336	     10.34627875	      1.18252560	     19.35049959	      0.33772993	     10.17112514	     -8.59277245	     -7.49999987	     -1.19595367	    -13.15003580	     -2.08581538	     58.10783445	      1.01417303	      1.86890013	     -9.91988784	     -7.49999987	    -19.29585458	     10.83706277	      6.89655809	      4.71066776	    -19.04927815	      6.22617380	     24.89255772	     88.95732432	     11.74506514	     -8.55353685	     17.26447395	     20.12226678	     89.86690009
     14.93333330	      6.17540007	     -7.89409730	     -1.69586075	      0.58049530	      1.04054479	      0.74793963	      6.58043696	      9.96700302	      1.19540475	     17.98217495	      0.31384816	     10.96263863	     -7.77175947	     -7.49999987	      1.43476445	    -12.50608135	     -1.18952937	     60.84748152	      1.06198889	      1.96961081	    -10.27895851	     -7.49999987	    -20.08450655	     10.29357361	      8.23572489	      4.05309774	    -19.43207052	      5.47025356	     27.08687597	     87.85726559	     12.30045143	     -8.47604488	     19.08054337	     19.09689034	     91.45403013
     14.95000000	      6.40427197	     -7.27895782	     -1.85167627	      0.57601618	      1.04092261	      0.75211017	      4.66018100	      9.38478610	      1.27708225	     16.74640287	      0.29227987	     11.60542706	     -6.70051985	     -7.49999987	      4.11651711	    -11.59738587	     -0.59325875	     62.44295569	      1.08983517	      3.07750734	    -10.05305795	     -7.49999987	    -20.80104224	      9.52762336	      8.68475349	      4.53806374	    -19.51882863	      6.05775270	     28.12103543	     86.00588199	     12.11299492	     -8.65607206	     19.32204100	     18.87606987	     89.58417464
     14.96666670	      6.44453879	     -6.64372935	     -2.02301360	      0.57098092	      1.03971163	      0.75739511	      3.04579228	      8.81880471	      1.59353172	     15.69509633	      0.27393111	     11.89086566	     -5.95539443	     -7.49999987	      6.89628194	    -10.66972356	     -0.19188699	     62.97787225	      1.09917123	      4.54507165	     -9.74662279	     -7.49999987	    -21.53089149	      8.77971995	      8.94582997	      4.79343607	    -19.59498946	      6.14422594	     30.18646646	     83.81531932	     11.28452007	     -9.21292178	     19.21761783	     20.33460729	     87.19441937
     14.98333330	      6.33472604	     -5.83294782	     -2.16195827	      0.56647466	      1.03875351	      0.76143114	      1.90621158	      8.01509580	      1.44345046	     15.18649122	      0.26505427	     12.70596530	     -4.40542040	     -7.49999987	      9.59026894	     -9.65801712	     -0.07235950	     62.62175752	      1.09295585	      6.05293042	     -9.14048725	     -7.49999987	    -21.76683139	      7.69153541	      9.08716182	      5.62743372	    -19.48861760	      6.84704758	     30.39819024	     85.12555467	     11.45869431	     -9.29972428	     19.59760009	     18.96036555	     89.01787566
     15.00000000	      6.27878349	     -5.17566441	     -2.25718523	      0.56309071	      1.03915723	      0.76285939	      0.70420158	      7.40866673	      1.60108203	     14.56922743	      0.25428099	     12.92655240	     -3.91403605	     -7.49999987	     11.89964927	     -8.86451682	     -0.11513886	     61.39995524	      1.07163138	      7.33150567	     -8.71582743	     -7.49999987	    -22.25093761	      6.84413700	      9.06269893	      6.06456639	    -19.40438446	      6.78767033	     32.12151619	     83.52092434	     10.72108513	     -9.69680946	     19.24048039	     19.94269491	     87.34092580
     15.01666670	      5.88305780	     -4.52512714	     -2.42638481	      0.56030811	      1.03958143	      0.76311290	     -0.05203245	      6.79451793	      1.79233370	     14.04082817	      0.24505868	     13.06457700	     -3.54055625	     -7.49999987	     14.22310077	     -8.14634083	     -0.42464514	     59.25417156	      1.03418039	      8.30378089	     -8.59026741	     -7.49999987	    -22.08636243	      5.95436882	      9.18617787	      6.64942562	    -19.24157147	      6.84190739	     32.71208842	     83.51177233	     10.44203054	     -9.82087338	     19.20499955	     19.75386846	     87.37181390
     15.03333330	      5.82632231	     -3.97889582	     -2.48400515	      0.55755919	      1.03927532	      0.76418397	     -1.18234402	      6.22197621	      1.69575564	     13.45330286	      0.23480443	     13.49779779	     -2.73849542	     -7.49999987	     15.89575360	     -7.62001239	     -0.90717545	     56.31731806	      0.98292263	      8.96316843	     -8.45384399	     -7.49999987	    -22.34036745	      5.21530388	      8.94544391	      7.60454704	    -19.09407397	      6.97379357	     33.59461142	     83.81049056	     10.29089961	     -9.91612364	     19.00196125	     19.32783088	     87.82779620
     15.05000000	      5.49989250	     -3.73503484	     -2.34753309	      0.55547123	      1.03725426	      0.76595994	     -2.07544397	      5.98842801	      1.61770927	     12.73705373	      0.22230352	     13.41031878	     -2.47505398	     -7.49999987	     17.69805594	     -7.45188631	     -1.20635865	     52.89343495	      0.92316459	      9.41370204	     -8.39234027	     -7.49999987	    -22.20694403	      4.83263131	      9.03381346	      8.31541714	    -19.15558152	      6.97089182	     34.15749241	     83.90138288	     10.24242912	     -9.82471168	     18.92673010	     19.16772677	     87.99090558
     15.06666670	      5.72593677	     -3.43178252	     -2.23694194	      0.55369082	      1.03632543	      0.76726064	     -3.44918710	      5.62515100	      1.48132968	     12.18078475	      0.21259480	     13.75674323	     -1.80469351	     -7.49999987	     18.45850777	     -7.27747373	     -1.64587846	     48.68181914	      0.84965803	      9.45241626	     -8.41238540	     -7.49999987	    -22.85801618	      4.27684574	      8.77195239	      9.22490106	    -19.11102593	      7.03602368	     35.48237875	     84.18398454	     10.24888476	     -9.93715190	     18.50308570	     19.09978995	     88.48422980
     15.08333330	      5.67336600	     -3.36120034	     -2.04180585	      0.55179275	      1.03664732	      0.76674549	     -4.46096897	      5.51062430	      1.35041943	     11.63414786	      0.20305419	     13.95427685	     -1.42808810	     -7.49999987	     19.33570384	     -7.33032195	     -1.83188766	     44.25037471	      0.77231473	      9.49197193	     -8.06008497	     -7.49999987	    -23.22278601	      4.03309897	      8.72108042	      9.85333528	    -19.28803038	      7.03027125	     36.63253009	     84.36658017	     10.25943025	     -9.84812241	     18.00068875	     19.28708232	     88.91247220
     15.10000000	      5.37176964	     -3.35807773	     -1.81420372	      0.54914921	      1.03806656	      0.76516455	     -5.17631643	      5.46556444	      1.18875254	     11.07317509	      0.19326336	     14.14196438	     -1.16878699	     -7.49999987	     20.36392420	     -7.41029045	     -1.84837273	     39.72239424	      0.69328657	      9.35332933	     -7.40882959	     -7.49999987	    -23.35670505	      4.01065235	      8.67582607	     10.31325042	    -19.43939068	      7.01778879	     37.60268100	     84.13978407	     10.20478727	     -9.77018448	     17.64472755	     19.76815431	     88.77958508
     15.11666670	      5.40212465	     -3.37932934	     -1.64346508	      0.54574384	      1.03964961	      0.76328314	     -6.27861916	      5.41102231	      1.05705311	     10.42072530	      0.18187597	     14.66936596	     -0.76801394	     -7.49999987	     20.92274456	     -7.49871121	     -1.89770977	     35.08143916	      0.61228662	      9.02955354	     -6.62629574	     -7.49999987	    -23.93349236	      3.94202332	      8.31222357	     11.07378604	    -19.73248087	      7.10572744	     38.75064207	     84.91269543	      9.82567665	     -9.26240589	     12.26103317	     20.91732385	     95.83756363
